<svg xmlns="http://www.w3.org/2000/svg" width="1000" height="760" viewBox="0 0 1000 760" role="img">
<defs>
<linearGradient id="bg" x1="0" y1="0" x2="0" y2="1">
<stop offset="0" stop-color="#F8F6F1"/>
<stop offset="1" stop-color="#ECE7DC"/>
</linearGradient>
<linearGradient id="sky" x1="0" y1="0" x2="0" y2="1">
<stop offset="0" stop-color="#FBF9F4"/>
<stop offset="1" stop-color="#F1EDE3"/>
</linearGradient>
<linearGradient id="duskSky" x1="0" y1="0" x2="0" y2="1">
<stop offset="0" stop-color="#1B2422"/>
<stop offset="1" stop-color="#2C3A34"/>
</linearGradient>
<radialGradient id="workLight" cx="50%" cy="30%" r="70%">
<stop offset="0" stop-color="#B98242" stop-opacity="0.35"/>
<stop offset="1" stop-color="#B98242" stop-opacity="0"/>
</radialGradient>
</defs>
<rect width="1000" height="760" fill="url(#bg)"/>
<rect width="1000" height="547.1999999999999" fill="url(#sky)"/><rect x="0" y="547.1999999999999" width="1000" height="212.80000000000007" fill="#E4E0D4"/><g opacity="0.1" stroke="#54432E" stroke-width="10" fill="none" stroke-linecap="round">
    <path d="M 50 678.24 Q 500 654.24 950 682.24"/>
    <path d="M 50 698.24 Q 500 674.24 950 702.24"/>
  </g><ellipse cx="457.2" cy="721.2" rx="1.6" ry="1.0" fill="#54432E" opacity="0.14"/><ellipse cx="890.9" cy="717.0" rx="1.4" ry="0.8" fill="#54432E" opacity="0.14"/><ellipse cx="721.4" cy="694.6" rx="3.3" ry="2.0" fill="#7A6449" opacity="0.14"/><ellipse cx="924.7" cy="732.8" rx="1.8" ry="1.1" fill="#7A6449" opacity="0.14"/><ellipse cx="678.7" cy="696.0" rx="3.5" ry="2.1" fill="#7A6449" opacity="0.14"/><ellipse cx="747.1" cy="704.0" rx="2.2" ry="1.3" fill="#7A6449" opacity="0.14"/><ellipse cx="761.2" cy="665.9" rx="2.0" ry="1.2" fill="#7A6449" opacity="0.14"/><ellipse cx="52.3" cy="719.2" rx="2.7" ry="1.6" fill="#54432E" opacity="0.14"/><ellipse cx="814.6" cy="615.2" rx="1.9" ry="1.1" fill="#54432E" opacity="0.14"/><ellipse cx="64.9" cy="701.9" rx="3.2" ry="1.9" fill="#54432E" opacity="0.14"/><ellipse cx="760.8" cy="672.4" rx="2.5" ry="1.5" fill="#7A6449" opacity="0.14"/><ellipse cx="37.0" cy="642.5" rx="2.2" ry="1.3" fill="#7A6449" opacity="0.14"/><ellipse cx="944.1" cy="724.7" rx="1.6" ry="1.0" fill="#54432E" opacity="0.14"/><ellipse cx="182.4" cy="660.6" rx="3.7" ry="2.2" fill="#7A6449" opacity="0.14"/><ellipse cx="803.5" cy="748.6" rx="3.6" ry="2.1" fill="#54432E" opacity="0.14"/><ellipse cx="831.8" cy="685.0" rx="1.4" ry="0.8" fill="#7A6449" opacity="0.14"/><ellipse cx="850.9" cy="645.6" rx="3.8" ry="2.3" fill="#7A6449" opacity="0.14"/><ellipse cx="501.6" cy="703.9" rx="1.9" ry="1.1" fill="#7A6449" opacity="0.14"/><ellipse cx="135.8" cy="730.6" rx="3.2" ry="1.9" fill="#54432E" opacity="0.14"/><ellipse cx="424.4" cy="552.9" rx="3.0" ry="1.8" fill="#54432E" opacity="0.14"/><ellipse cx="264.4" cy="661.5" rx="3.6" ry="2.2" fill="#54432E" opacity="0.14"/><ellipse cx="32.5" cy="674.1" rx="3.7" ry="2.2" fill="#54432E" opacity="0.14"/><ellipse cx="745.2" cy="745.8" rx="2.1" ry="1.3" fill="#7A6449" opacity="0.14"/><ellipse cx="855.9" cy="703.7" rx="1.9" ry="1.1" fill="#54432E" opacity="0.14"/><ellipse cx="620.2" cy="755.7" rx="2.1" ry="1.3" fill="#7A6449" opacity="0.14"/><ellipse cx="164.8" cy="720.4" rx="3.7" ry="2.2" fill="#54432E" opacity="0.14"/><ellipse cx="495.5" cy="643.9" rx="1.8" ry="1.1" fill="#7A6449" opacity="0.14"/><ellipse cx="15.0" cy="724.9" rx="2.6" ry="1.6" fill="#7A6449" opacity="0.14"/><ellipse cx="909.0" cy="752.2" rx="2.1" ry="1.3" fill="#7A6449" opacity="0.14"/><ellipse cx="502.1" cy="695.4" rx="2.6" ry="1.6" fill="#54432E" opacity="0.14"/><ellipse cx="428.8" cy="663.2" rx="1.9" ry="1.2" fill="#54432E" opacity="0.14"/><ellipse cx="242.2" cy="584.5" rx="2.5" ry="1.5" fill="#54432E" opacity="0.14"/><ellipse cx="939.6" cy="680.4" rx="2.3" ry="1.4" fill="#54432E" opacity="0.14"/><ellipse cx="324.6" cy="679.5" rx="2.4" ry="1.5" fill="#54432E" opacity="0.14"/><ellipse cx="944.5" cy="722.8" rx="3.7" ry="2.2" fill="#7A6449" opacity="0.14"/><ellipse cx="213.2" cy="720.2" rx="1.9" ry="1.1" fill="#54432E" opacity="0.14"/><ellipse cx="261.0" cy="642.1" rx="2.3" ry="1.4" fill="#54432E" opacity="0.14"/><ellipse cx="420.0" cy="567.9" rx="2.6" ry="1.6" fill="#54432E" opacity="0.14"/><ellipse cx="232.5" cy="758.0" rx="2.7" ry="1.6" fill="#7A6449" opacity="0.14"/><ellipse cx="336.2" cy="656.1" rx="2.5" ry="1.5" fill="#54432E" opacity="0.14"/><ellipse cx="632.5" cy="699.2" rx="2.5" ry="1.5" fill="#7A6449" opacity="0.14"/><ellipse cx="902.2" cy="665.7" rx="2.2" ry="1.3" fill="#54432E" opacity="0.14"/><ellipse cx="91.4" cy="697.9" rx="2.6" ry="1.6" fill="#7A6449" opacity="0.14"/><ellipse cx="999.2" cy="565.1" rx="2.4" ry="1.4" fill="#54432E" opacity="0.14"/><ellipse cx="222.2" cy="747.4" rx="2.7" ry="1.6" fill="#54432E" opacity="0.14"/><ellipse cx="794.3" cy="672.0" rx="3.1" ry="1.9" fill="#54432E" opacity="0.14"/><ellipse cx="754.6" cy="632.6" rx="3.4" ry="2.0" fill="#7A6449" opacity="0.14"/><ellipse cx="976.4" cy="626.8" rx="1.6" ry="1.0" fill="#7A6449" opacity="0.14"/><ellipse cx="204.6" cy="669.3" rx="2.5" ry="1.5" fill="#54432E" opacity="0.14"/><ellipse cx="769.4" cy="707.8" rx="2.7" ry="1.6" fill="#7A6449" opacity="0.14"/><ellipse cx="449.7" cy="742.9" rx="1.3" ry="0.8" fill="#54432E" opacity="0.14"/><ellipse cx="721.6" cy="716.0" rx="2.3" ry="1.4" fill="#7A6449" opacity="0.14"/><ellipse cx="695.2" cy="558.1" rx="2.0" ry="1.2" fill="#54432E" opacity="0.14"/><ellipse cx="527.7" cy="548.9" rx="3.8" ry="2.3" fill="#54432E" opacity="0.14"/><ellipse cx="482.9" cy="685.2" rx="2.8" ry="1.7" fill="#7A6449" opacity="0.14"/><ellipse cx="664.8" cy="743.6" rx="3.2" ry="1.9" fill="#7A6449" opacity="0.14"/><ellipse cx="668.1" cy="695.1" rx="3.1" ry="1.9" fill="#7A6449" opacity="0.14"/><ellipse cx="639.3" cy="646.1" rx="2.6" ry="1.6" fill="#7A6449" opacity="0.14"/><ellipse cx="918.2" cy="556.7" rx="2.1" ry="1.2" fill="#7A6449" opacity="0.14"/><ellipse cx="358.6" cy="721.3" rx="2.4" ry="1.4" fill="#54432E" opacity="0.14"/><ellipse cx="207.6" cy="717.1" rx="1.7" ry="1.0" fill="#54432E" opacity="0.14"/><ellipse cx="353.4" cy="553.3" rx="2.4" ry="1.4" fill="#54432E" opacity="0.14"/><ellipse cx="714.7" cy="554.0" rx="3.4" ry="2.0" fill="#7A6449" opacity="0.14"/><ellipse cx="513.1" cy="653.3" rx="1.3" ry="0.8" fill="#7A6449" opacity="0.14"/><ellipse cx="897.7" cy="712.3" rx="1.9" ry="1.1" fill="#54432E" opacity="0.14"/><ellipse cx="915.6" cy="700.3" rx="3.4" ry="2.1" fill="#54432E" opacity="0.14"/><ellipse cx="32.6" cy="724.0" rx="1.8" ry="1.1" fill="#7A6449" opacity="0.14"/><ellipse cx="447.9" cy="578.9" rx="2.5" ry="1.5" fill="#54432E" opacity="0.14"/><ellipse cx="977.6" cy="687.7" rx="2.1" ry="1.2" fill="#7A6449" opacity="0.14"/><ellipse cx="774.6" cy="749.7" rx="2.5" ry="1.5" fill="#7A6449" opacity="0.14"/><ellipse cx="202.9" cy="569.6" rx="3.7" ry="2.2" fill="#54432E" opacity="0.14"/><line x1="0" y1="547.1999999999999" x2="1000" y2="547.1999999999999" stroke="#DDD9D1" stroke-width="2"/>
<g>
  <rect x="394" y="553.1999999999999" width="612" height="6" rx="3" fill="#B98242" opacity="0.6"/>
  <rect x="546.96" y="433.19999999999993" width="28.503999999999998" height="114" fill="#174C48" opacity="0.92"/><rect x="579.464" y="433.19999999999993" width="28.503999999999998" height="114" fill="#103936" opacity="0.8"/><rect x="611.9680000000001" y="433.19999999999993" width="28.503999999999998" height="114" fill="#174C48" opacity="0.92"/><rect x="644.472" y="433.19999999999993" width="28.503999999999998" height="114" fill="#103936" opacity="0.8"/><rect x="676.976" y="433.19999999999993" width="28.503999999999998" height="114" fill="#174C48" opacity="0.92"/><rect x="709.48" y="433.19999999999993" width="28.503999999999998" height="114" fill="#103936" opacity="0.8"/><rect x="741.984" y="433.19999999999993" width="28.503999999999998" height="114" fill="#174C48" opacity="0.92"/><rect x="774.488" y="433.19999999999993" width="28.503999999999998" height="114" fill="#103936" opacity="0.8"/><rect x="806.992" y="433.19999999999993" width="28.503999999999998" height="114" fill="#174C48" opacity="0.92"/><rect x="839.4960000000001" y="433.19999999999993" width="28.503999999999998" height="114" fill="#103936" opacity="0.8"/>
  <rect x="538.96" y="425.19999999999993" width="337.03999999999996" height="10" fill="#103936"/>
  <circle cx="554.96" cy="553.1999999999999" r="7" fill="#103936"/>
  <circle cx="860" cy="553.1999999999999" r="7" fill="#103936"/>
</g>
<g transform="translate(470 448.3999999999999) scale(1.3571428571428572)">
  <rect x="-70" y="-50" width="140" height="100" rx="10" fill="#103936"/>
  <rect x="-58" y="-38" width="116" height="42" rx="6" fill="#174C48"/>
  <circle cx="40" cy="30" r="9" fill="#B98242"/>
  <rect x="-58" y="18" width="70" height="10" rx="5" fill="#ffffff" opacity="0.5"/>
  <line x1="70" y1="10" x2="130" y2="-30" stroke="#103936" stroke-width="6" stroke-linecap="round"/>
  <line x1="-70" y1="10" x2="-130" y2="40" stroke="#103936" stroke-width="6" stroke-linecap="round"/>
</g>
<g transform="translate(580 557.1999999999999) scale(0.7692307692307693)">
  <rect x="-46" y="-6" width="70" height="10" rx="3" fill="#B98242" transform="rotate(-8 -11 -1)"/>
  <rect x="30" y="-16" width="8" height="34" rx="2" fill="#4B514C" transform="rotate(24 34 1)"/>
  <circle cx="52" cy="4" r="10" fill="#6E756F" opacity="0.9"/>
  <circle cx="52" cy="4" r="4" fill="#103936"/>
</g>
<g transform="translate(330 547.1999999999999) scale(0.9090909090909091 0.9090909090909091)">
  <ellipse cx="0" cy="2" rx="26" ry="6" fill="#000000" opacity="0.14"/>
  <rect x="-10" y="-8" width="10" height="10" fill="#103936"/>
  <rect x="4" y="-8" width="10" height="10" fill="#103936"/>
  <path d="M -14 -70 L 14 -70 L 12 -10 L -12 -10 Z" fill="#B98242"/>
  <circle cx="0" cy="-82" r="11" fill="#C9977A"/>
  <path d="M -11 -84 Q 0 -94 11 -84 L 9 -88 Q 0 -95 -9 -88 Z" fill="#103936"/>
  <path d="M -14 -64 Q -30 -54 -32 -34" stroke="#103936" stroke-width="7" fill="none" stroke-linecap="round"/>
  <path d="M 14 -64 Q 26 -50 24 -30" stroke="#103936" stroke-width="7" fill="none" stroke-linecap="round"/>
  <rect x="16" y="-36" width="6" height="26" rx="2" fill="#6E756F" transform="rotate(-18 19 -23)"/>
</g>

<g opacity="0.85"><rect x="892.6" y="722" width="97.4" height="22" rx="11" fill="#ffffff" opacity="0.6"/><text x="982" y="737" text-anchor="end" font-family="Arial, sans-serif" font-size="12" fill="#B98242" font-weight="600">иллюстрация</text></g></svg>