<svg xmlns="http://www.w3.org/2000/svg" width="640" height="480" viewBox="0 0 640 480" role="img">
<defs>
<linearGradient id="bg" x1="0" y1="0" x2="0" y2="1">
<stop offset="0" stop-color="#F8F6F1"/>
<stop offset="1" stop-color="#ECE7DC"/>
</linearGradient>
<linearGradient id="sky" x1="0" y1="0" x2="0" y2="1">
<stop offset="0" stop-color="#FBF9F4"/>
<stop offset="1" stop-color="#F1EDE3"/>
</linearGradient>
</defs>
<rect width="640" height="480" fill="url(#bg)"/>
<rect x="0" y="60" width="14" height="360" rx="7" fill="#174C48"/><rect x="30" y="60" width="14" height="360" rx="7" fill="#174C48"/><rect x="60" y="60" width="14" height="360" rx="7" fill="#174C48"/><rect x="90" y="60" width="14" height="360" rx="7" fill="#174C48"/><rect x="120" y="60" width="14" height="360" rx="7" fill="#174C48"/><rect x="150" y="60" width="14" height="360" rx="7" fill="#174C48"/><rect x="180" y="60" width="14" height="360" rx="7" fill="#174C48"/><rect x="210" y="60" width="14" height="360" rx="7" fill="#174C48"/><rect x="240" y="60" width="14" height="360" rx="7" fill="#174C48"/><rect x="270" y="60" width="14" height="360" rx="7" fill="#174C48"/><rect x="300" y="60" width="14" height="360" rx="7" fill="#174C48"/><rect x="330" y="60" width="14" height="360" rx="7" fill="#174C48"/><rect x="360" y="60" width="14" height="360" rx="7" fill="#174C48"/><rect x="390" y="60" width="14" height="360" rx="7" fill="#174C48"/><rect x="420" y="60" width="14" height="360" rx="7" fill="#174C48"/><rect x="450" y="60" width="14" height="360" rx="7" fill="#174C48"/><rect x="480" y="60" width="14" height="360" rx="7" fill="#174C48"/><rect x="510" y="60" width="14" height="360" rx="7" fill="#174C48"/><rect x="540" y="60" width="14" height="360" rx="7" fill="#174C48"/><rect x="570" y="60" width="14" height="360" rx="7" fill="#174C48"/><rect x="600" y="60" width="14" height="360" rx="7" fill="#174C48"/><rect x="630" y="60" width="14" height="360" rx="7" fill="#174C48"/>

</svg>