<svg xmlns="http://www.w3.org/2000/svg" width="800" height="600" viewBox="0 0 800 600" role="img">
<defs>
<linearGradient id="bg" x1="0" y1="0" x2="0" y2="1">
<stop offset="0" stop-color="#F8F6F1"/>
<stop offset="1" stop-color="#ECE7DC"/>
</linearGradient>
<linearGradient id="sky" x1="0" y1="0" x2="0" y2="1">
<stop offset="0" stop-color="#FBF9F4"/>
<stop offset="1" stop-color="#F1EDE3"/>
</linearGradient>
<linearGradient id="duskSky" x1="0" y1="0" x2="0" y2="1">
<stop offset="0" stop-color="#1B2422"/>
<stop offset="1" stop-color="#2C3A34"/>
</linearGradient>
<radialGradient id="workLight" cx="50%" cy="30%" r="70%">
<stop offset="0" stop-color="#B98242" stop-opacity="0.35"/>
<stop offset="1" stop-color="#B98242" stop-opacity="0"/>
</radialGradient>
</defs>
<rect width="800" height="600" fill="url(#bg)"/>
<rect width="800" height="468" fill="url(#sky)"/><rect x="0" y="468" width="800" height="132" fill="#E4E0D4"/><g opacity="0.1" stroke="#54432E" stroke-width="10" fill="none" stroke-linecap="round">
    <path d="M 40 554.6 Q 400 530.6 760 558.6"/>
    <path d="M 40 574.6 Q 400 550.6 760 578.6"/>
  </g><ellipse cx="525.2" cy="549.2" rx="2.2" ry="1.3" fill="#7A6449" opacity="0.14"/><ellipse cx="119.9" cy="523.4" rx="3.7" ry="2.2" fill="#54432E" opacity="0.14"/><ellipse cx="467.1" cy="471.7" rx="1.6" ry="1.0" fill="#54432E" opacity="0.14"/><ellipse cx="0.7" cy="495.2" rx="3.3" ry="2.0" fill="#54432E" opacity="0.14"/><ellipse cx="558.1" cy="581.2" rx="3.3" ry="2.0" fill="#7A6449" opacity="0.14"/><ellipse cx="465.9" cy="552.6" rx="3.4" ry="2.0" fill="#7A6449" opacity="0.14"/><ellipse cx="506.3" cy="576.6" rx="2.0" ry="1.2" fill="#7A6449" opacity="0.14"/><ellipse cx="149.1" cy="513.1" rx="1.3" ry="0.8" fill="#54432E" opacity="0.14"/><ellipse cx="528.4" cy="566.2" rx="3.6" ry="2.2" fill="#54432E" opacity="0.14"/><ellipse cx="169.5" cy="583.3" rx="3.7" ry="2.2" fill="#54432E" opacity="0.14"/><ellipse cx="537.9" cy="561.7" rx="2.8" ry="1.7" fill="#54432E" opacity="0.14"/><ellipse cx="534.6" cy="577.6" rx="3.2" ry="1.9" fill="#54432E" opacity="0.14"/><ellipse cx="224.7" cy="537.2" rx="1.4" ry="0.8" fill="#7A6449" opacity="0.14"/><ellipse cx="733.0" cy="531.5" rx="2.1" ry="1.2" fill="#54432E" opacity="0.14"/><ellipse cx="10.0" cy="479.0" rx="1.9" ry="1.2" fill="#7A6449" opacity="0.14"/><ellipse cx="389.8" cy="563.9" rx="3.5" ry="2.1" fill="#54432E" opacity="0.14"/><ellipse cx="678.6" cy="594.4" rx="2.0" ry="1.2" fill="#54432E" opacity="0.14"/><ellipse cx="143.0" cy="591.5" rx="1.3" ry="0.8" fill="#7A6449" opacity="0.14"/><ellipse cx="213.5" cy="525.0" rx="3.2" ry="1.9" fill="#7A6449" opacity="0.14"/><ellipse cx="344.9" cy="508.9" rx="3.2" ry="1.9" fill="#7A6449" opacity="0.14"/><ellipse cx="434.9" cy="517.8" rx="3.6" ry="2.2" fill="#54432E" opacity="0.14"/><ellipse cx="229.8" cy="528.8" rx="2.1" ry="1.2" fill="#7A6449" opacity="0.14"/><ellipse cx="2.0" cy="567.4" rx="1.8" ry="1.1" fill="#7A6449" opacity="0.14"/><ellipse cx="758.7" cy="511.3" rx="1.4" ry="0.9" fill="#54432E" opacity="0.14"/><ellipse cx="513.0" cy="568.7" rx="3.3" ry="2.0" fill="#7A6449" opacity="0.14"/><ellipse cx="766.9" cy="497.0" rx="3.6" ry="2.2" fill="#7A6449" opacity="0.14"/><ellipse cx="408.7" cy="589.8" rx="1.9" ry="1.1" fill="#54432E" opacity="0.14"/><ellipse cx="652.8" cy="571.9" rx="1.8" ry="1.1" fill="#7A6449" opacity="0.14"/><ellipse cx="10.4" cy="483.6" rx="2.2" ry="1.3" fill="#54432E" opacity="0.14"/><ellipse cx="567.9" cy="484.6" rx="3.7" ry="2.2" fill="#7A6449" opacity="0.14"/><ellipse cx="517.7" cy="563.9" rx="2.7" ry="1.6" fill="#54432E" opacity="0.14"/><ellipse cx="71.7" cy="598.2" rx="1.3" ry="0.8" fill="#54432E" opacity="0.14"/><ellipse cx="568.3" cy="520.1" rx="2.6" ry="1.6" fill="#7A6449" opacity="0.14"/><ellipse cx="769.7" cy="589.0" rx="3.4" ry="2.0" fill="#54432E" opacity="0.14"/><ellipse cx="763.4" cy="541.8" rx="1.4" ry="0.9" fill="#7A6449" opacity="0.14"/><line x1="0" y1="468" x2="800" y2="468" stroke="#DDD9D1" stroke-width="2"/>
<rect x="214" y="198" width="372" height="270" fill="#ffffff" stroke="#DDD9D1" stroke-width="2"/>
<rect x="232" y="218" width="336" height="46.4" fill="#174C48" opacity="0.9"/><rect x="232" y="268.4" width="336" height="46.4" fill="#103936" opacity="0.9"/><rect x="232" y="318.8" width="336" height="46.4" fill="#174C48" opacity="0.9"/><rect x="232" y="369.2" width="336" height="46.4" fill="#103936" opacity="0.9"/><rect x="232" y="419.6" width="336" height="46.4" fill="#174C48" opacity="0.9"/>
<rect x="214" y="198" width="372" height="12" fill="#B98242" opacity="0.5"/>


<g opacity="0.85"><rect x="692.6" y="562" width="97.4" height="22" rx="11" fill="#ffffff" opacity="0.6"/><text x="782" y="577" text-anchor="end" font-family="Arial, sans-serif" font-size="12" fill="#B98242" font-weight="600">иллюстрация</text></g></svg>