<svg xmlns="http://www.w3.org/2000/svg" width="800" height="800" viewBox="0 0 800 800" role="img">
<defs>
<linearGradient id="bg" x1="0" y1="0" x2="0" y2="1">
<stop offset="0" stop-color="#F8F6F1"/>
<stop offset="1" stop-color="#ECE7DC"/>
</linearGradient>
<linearGradient id="sky" x1="0" y1="0" x2="0" y2="1">
<stop offset="0" stop-color="#FBF9F4"/>
<stop offset="1" stop-color="#F1EDE3"/>
</linearGradient>
<linearGradient id="duskSky" x1="0" y1="0" x2="0" y2="1">
<stop offset="0" stop-color="#1B2422"/>
<stop offset="1" stop-color="#2C3A34"/>
</linearGradient>
<radialGradient id="workLight" cx="50%" cy="30%" r="70%">
<stop offset="0" stop-color="#B98242" stop-opacity="0.35"/>
<stop offset="1" stop-color="#B98242" stop-opacity="0"/>
</radialGradient>
</defs>
<rect width="800" height="800" fill="url(#bg)"/>
<rect width="800" height="576" fill="url(#sky)"/><rect x="0" y="576" width="800" height="224" fill="#E4E0D4"/><g opacity="0.1" stroke="#54432E" stroke-width="10" fill="none" stroke-linecap="round">
    <path d="M 40 713.2 Q 400 689.2 760 717.2"/>
    <path d="M 40 733.2 Q 400 709.2 760 737.2"/>
  </g><ellipse cx="383.6" cy="726.2" rx="2.9" ry="1.8" fill="#54432E" opacity="0.14"/><ellipse cx="40.6" cy="718.0" rx="2.5" ry="1.5" fill="#7A6449" opacity="0.14"/><ellipse cx="4.8" cy="586.8" rx="2.0" ry="1.2" fill="#7A6449" opacity="0.14"/><ellipse cx="702.6" cy="602.1" rx="2.9" ry="1.7" fill="#54432E" opacity="0.14"/><ellipse cx="28.3" cy="712.2" rx="2.9" ry="1.7" fill="#7A6449" opacity="0.14"/><ellipse cx="461.9" cy="677.5" rx="3.4" ry="2.1" fill="#54432E" opacity="0.14"/><ellipse cx="486.9" cy="622.9" rx="2.5" ry="1.5" fill="#54432E" opacity="0.14"/><ellipse cx="485.6" cy="683.1" rx="3.5" ry="2.1" fill="#54432E" opacity="0.14"/><ellipse cx="625.2" cy="606.6" rx="2.6" ry="1.6" fill="#7A6449" opacity="0.14"/><ellipse cx="504.5" cy="765.1" rx="2.9" ry="1.7" fill="#54432E" opacity="0.14"/><ellipse cx="395.9" cy="753.4" rx="1.2" ry="0.7" fill="#7A6449" opacity="0.14"/><ellipse cx="105.4" cy="626.1" rx="3.1" ry="1.9" fill="#54432E" opacity="0.14"/><ellipse cx="714.5" cy="645.9" rx="3.8" ry="2.3" fill="#54432E" opacity="0.14"/><ellipse cx="473.6" cy="664.8" rx="2.3" ry="1.4" fill="#7A6449" opacity="0.14"/><ellipse cx="353.7" cy="608.9" rx="3.4" ry="2.1" fill="#54432E" opacity="0.14"/><ellipse cx="658.8" cy="745.4" rx="2.5" ry="1.5" fill="#7A6449" opacity="0.14"/><ellipse cx="652.5" cy="656.2" rx="2.4" ry="1.4" fill="#7A6449" opacity="0.14"/><ellipse cx="615.9" cy="692.8" rx="3.2" ry="1.9" fill="#7A6449" opacity="0.14"/><ellipse cx="634.1" cy="759.0" rx="3.8" ry="2.3" fill="#7A6449" opacity="0.14"/><ellipse cx="485.5" cy="633.7" rx="2.0" ry="1.2" fill="#7A6449" opacity="0.14"/><ellipse cx="784.0" cy="731.1" rx="3.0" ry="1.8" fill="#54432E" opacity="0.14"/><ellipse cx="643.9" cy="585.2" rx="2.8" ry="1.7" fill="#7A6449" opacity="0.14"/><ellipse cx="509.6" cy="576.6" rx="2.6" ry="1.6" fill="#54432E" opacity="0.14"/><ellipse cx="359.7" cy="792.8" rx="2.7" ry="1.6" fill="#54432E" opacity="0.14"/><ellipse cx="694.0" cy="769.9" rx="2.7" ry="1.6" fill="#7A6449" opacity="0.14"/><ellipse cx="645.8" cy="684.2" rx="3.3" ry="2.0" fill="#7A6449" opacity="0.14"/><ellipse cx="709.6" cy="649.0" rx="2.3" ry="1.4" fill="#54432E" opacity="0.14"/><ellipse cx="670.5" cy="751.4" rx="3.7" ry="2.2" fill="#54432E" opacity="0.14"/><ellipse cx="555.9" cy="680.8" rx="2.7" ry="1.6" fill="#54432E" opacity="0.14"/><ellipse cx="315.4" cy="775.3" rx="1.8" ry="1.1" fill="#7A6449" opacity="0.14"/><ellipse cx="271.2" cy="589.5" rx="3.6" ry="2.2" fill="#7A6449" opacity="0.14"/><ellipse cx="590.5" cy="707.6" rx="3.1" ry="1.9" fill="#7A6449" opacity="0.14"/><ellipse cx="24.0" cy="777.3" rx="1.5" ry="0.9" fill="#54432E" opacity="0.14"/><ellipse cx="323.8" cy="799.7" rx="1.8" ry="1.1" fill="#7A6449" opacity="0.14"/><ellipse cx="384.9" cy="636.4" rx="3.4" ry="2.0" fill="#7A6449" opacity="0.14"/><ellipse cx="751.8" cy="689.0" rx="3.0" ry="1.8" fill="#7A6449" opacity="0.14"/><ellipse cx="659.5" cy="678.3" rx="3.0" ry="1.8" fill="#7A6449" opacity="0.14"/><ellipse cx="555.9" cy="711.2" rx="3.5" ry="2.1" fill="#54432E" opacity="0.14"/><ellipse cx="267.4" cy="772.8" rx="3.2" ry="1.9" fill="#54432E" opacity="0.14"/><ellipse cx="490.2" cy="664.6" rx="1.5" ry="0.9" fill="#7A6449" opacity="0.14"/><ellipse cx="710.0" cy="765.7" rx="3.2" ry="1.9" fill="#54432E" opacity="0.14"/><ellipse cx="352.4" cy="620.7" rx="3.0" ry="1.8" fill="#54432E" opacity="0.14"/><ellipse cx="166.1" cy="738.4" rx="2.1" ry="1.3" fill="#54432E" opacity="0.14"/><ellipse cx="692.3" cy="735.1" rx="2.5" ry="1.5" fill="#7A6449" opacity="0.14"/><ellipse cx="415.6" cy="696.1" rx="2.2" ry="1.3" fill="#7A6449" opacity="0.14"/><ellipse cx="332.3" cy="653.6" rx="1.5" ry="0.9" fill="#54432E" opacity="0.14"/><ellipse cx="312.7" cy="692.0" rx="2.9" ry="1.8" fill="#7A6449" opacity="0.14"/><ellipse cx="589.8" cy="702.9" rx="2.2" ry="1.3" fill="#54432E" opacity="0.14"/><ellipse cx="406.5" cy="589.5" rx="2.4" ry="1.5" fill="#54432E" opacity="0.14"/><ellipse cx="658.5" cy="787.6" rx="2.3" ry="1.4" fill="#54432E" opacity="0.14"/><ellipse cx="351.6" cy="762.9" rx="2.3" ry="1.4" fill="#7A6449" opacity="0.14"/><ellipse cx="255.7" cy="704.9" rx="1.9" ry="1.1" fill="#7A6449" opacity="0.14"/><ellipse cx="469.5" cy="579.5" rx="2.5" ry="1.5" fill="#7A6449" opacity="0.14"/><ellipse cx="622.1" cy="750.2" rx="2.5" ry="1.5" fill="#54432E" opacity="0.14"/><ellipse cx="341.0" cy="667.4" rx="2.7" ry="1.6" fill="#54432E" opacity="0.14"/><ellipse cx="56.5" cy="649.6" rx="1.3" ry="0.8" fill="#54432E" opacity="0.14"/><ellipse cx="427.4" cy="599.8" rx="3.6" ry="2.1" fill="#54432E" opacity="0.14"/><ellipse cx="317.2" cy="757.5" rx="3.7" ry="2.2" fill="#54432E" opacity="0.14"/><ellipse cx="94.5" cy="710.7" rx="3.1" ry="1.9" fill="#7A6449" opacity="0.14"/><ellipse cx="251.9" cy="796.6" rx="2.2" ry="1.3" fill="#54432E" opacity="0.14"/><line x1="0" y1="576" x2="800" y2="576" stroke="#DDD9D1" stroke-width="2"/><rect x="0" y="570" width="800" height="6" fill="#B98242" opacity="0.35"/>
<g>
  <rect x="126.22222222222226" y="460.44444444444446" width="195.55555555555554" height="115.55555555555554" fill="#ffffff" stroke="#DDD9D1" stroke-width="2"/>
  <polygon points="112.22222222222226,460.44444444444446 335.7777777777778,460.44444444444446 224.00000000000003,411.55555555555554" fill="#174C48"/>
  <rect x="149.68888888888893" y="492.8" width="43.02222222222222" height="34.666666666666664" fill="#174C48" opacity="0.15"/>
  <rect x="255.28888888888892" y="492.8" width="43.02222222222222" height="34.666666666666664" fill="#174C48" opacity="0.15"/>
  <rect x="208.35555555555558" y="512.4444444444445" width="31.288888888888888" height="63.55555555555556" fill="#103936" opacity="0.4"/>
</g>
<g>
  <rect x="225.59999999999997" y="582" width="604.8000000000001" height="6" rx="3" fill="#B98242" opacity="0.6"/>
  <rect x="472.88" y="448" width="18.511999999999997" height="128" fill="#174C48" opacity="0.92"/><rect x="495.392" y="448" width="18.511999999999997" height="128" fill="#103936" opacity="0.8"/><rect x="517.904" y="448" width="18.511999999999997" height="128" fill="#174C48" opacity="0.92"/><rect x="540.4159999999999" y="448" width="18.511999999999997" height="128" fill="#103936" opacity="0.8"/><rect x="562.928" y="448" width="18.511999999999997" height="128" fill="#174C48" opacity="0.92"/><rect x="585.4399999999999" y="448" width="18.511999999999997" height="128" fill="#103936" opacity="0.8"/><rect x="607.952" y="448" width="18.511999999999997" height="128" fill="#174C48" opacity="0.92"/><rect x="630.4639999999999" y="448" width="18.511999999999997" height="128" fill="#103936" opacity="0.8"/><rect x="652.976" y="448" width="18.511999999999997" height="128" fill="#174C48" opacity="0.92"/><rect x="675.4879999999999" y="448" width="18.511999999999997" height="128" fill="#103936" opacity="0.8"/>
  <rect x="464.88" y="440" width="237.11999999999998" height="10" fill="#103936"/>
  <circle cx="480.88" cy="582" r="7" fill="#103936"/>
  <circle cx="686" cy="582" r="7" fill="#103936"/>
</g>

<g opacity="0.85"><rect x="744.4" y="762" width="45.6" height="22" rx="11" fill="#ffffff" opacity="0.6"/><text x="782" y="777" text-anchor="end" font-family="Arial, sans-serif" font-size="12" fill="#B98242" font-weight="600">фото</text></g></svg>