<svg xmlns="http://www.w3.org/2000/svg" width="900" height="700" viewBox="0 0 900 700" role="img">
<defs>
<linearGradient id="bg" x1="0" y1="0" x2="0" y2="1">
<stop offset="0" stop-color="#F8F6F1"/>
<stop offset="1" stop-color="#ECE7DC"/>
</linearGradient>
<linearGradient id="sky" x1="0" y1="0" x2="0" y2="1">
<stop offset="0" stop-color="#FBF9F4"/>
<stop offset="1" stop-color="#F1EDE3"/>
</linearGradient>
<linearGradient id="duskSky" x1="0" y1="0" x2="0" y2="1">
<stop offset="0" stop-color="#1B2422"/>
<stop offset="1" stop-color="#2C3A34"/>
</linearGradient>
<radialGradient id="workLight" cx="50%" cy="30%" r="70%">
<stop offset="0" stop-color="#B98242" stop-opacity="0.35"/>
<stop offset="1" stop-color="#B98242" stop-opacity="0"/>
</radialGradient>
</defs>
<rect width="900" height="700" fill="url(#bg)"/>
<rect width="900" height="504" fill="url(#sky)"/><rect x="0" y="504" width="900" height="196" fill="#E4E0D4"/><g opacity="0.1" stroke="#54432E" stroke-width="10" fill="none" stroke-linecap="round">
    <path d="M 45 625.8 Q 450 601.8 855 629.8"/>
    <path d="M 45 645.8 Q 450 621.8 855 649.8"/>
  </g><ellipse cx="73.6" cy="692.6" rx="3.6" ry="2.1" fill="#7A6449" opacity="0.14"/><ellipse cx="144.5" cy="684.3" rx="2.1" ry="1.3" fill="#54432E" opacity="0.14"/><ellipse cx="522.1" cy="560.8" rx="2.8" ry="1.7" fill="#7A6449" opacity="0.14"/><ellipse cx="464.6" cy="622.0" rx="2.1" ry="1.2" fill="#54432E" opacity="0.14"/><ellipse cx="792.8" cy="559.7" rx="1.8" ry="1.1" fill="#7A6449" opacity="0.14"/><ellipse cx="717.3" cy="536.2" rx="1.7" ry="1.0" fill="#54432E" opacity="0.14"/><ellipse cx="231.3" cy="623.3" rx="2.9" ry="1.7" fill="#7A6449" opacity="0.14"/><ellipse cx="413.3" cy="578.0" rx="2.3" ry="1.4" fill="#54432E" opacity="0.14"/><ellipse cx="577.4" cy="525.6" rx="1.7" ry="1.0" fill="#54432E" opacity="0.14"/><ellipse cx="863.6" cy="677.5" rx="2.0" ry="1.2" fill="#54432E" opacity="0.14"/><ellipse cx="635.8" cy="544.8" rx="1.5" ry="0.9" fill="#7A6449" opacity="0.14"/><ellipse cx="30.7" cy="570.5" rx="3.2" ry="1.9" fill="#7A6449" opacity="0.14"/><ellipse cx="532.4" cy="694.4" rx="1.3" ry="0.8" fill="#7A6449" opacity="0.14"/><ellipse cx="521.0" cy="595.7" rx="3.6" ry="2.2" fill="#7A6449" opacity="0.14"/><ellipse cx="52.3" cy="608.8" rx="3.2" ry="1.9" fill="#7A6449" opacity="0.14"/><ellipse cx="516.0" cy="604.2" rx="1.3" ry="0.8" fill="#7A6449" opacity="0.14"/><ellipse cx="158.1" cy="569.9" rx="3.8" ry="2.3" fill="#7A6449" opacity="0.14"/><ellipse cx="657.1" cy="637.4" rx="1.9" ry="1.1" fill="#54432E" opacity="0.14"/><ellipse cx="244.2" cy="527.0" rx="3.3" ry="2.0" fill="#54432E" opacity="0.14"/><ellipse cx="237.9" cy="639.4" rx="1.2" ry="0.7" fill="#54432E" opacity="0.14"/><ellipse cx="496.0" cy="697.2" rx="3.5" ry="2.1" fill="#54432E" opacity="0.14"/><ellipse cx="713.5" cy="508.1" rx="2.3" ry="1.4" fill="#54432E" opacity="0.14"/><ellipse cx="253.1" cy="588.3" rx="2.7" ry="1.6" fill="#54432E" opacity="0.14"/><ellipse cx="615.8" cy="643.7" rx="2.9" ry="1.8" fill="#54432E" opacity="0.14"/><ellipse cx="400.6" cy="690.2" rx="1.6" ry="1.0" fill="#54432E" opacity="0.14"/><ellipse cx="620.4" cy="697.8" rx="2.1" ry="1.3" fill="#7A6449" opacity="0.14"/><ellipse cx="508.0" cy="670.8" rx="2.3" ry="1.4" fill="#54432E" opacity="0.14"/><ellipse cx="498.5" cy="533.5" rx="2.3" ry="1.4" fill="#54432E" opacity="0.14"/><ellipse cx="126.7" cy="678.9" rx="1.4" ry="0.9" fill="#54432E" opacity="0.14"/><ellipse cx="698.8" cy="505.8" rx="3.1" ry="1.9" fill="#7A6449" opacity="0.14"/><ellipse cx="658.6" cy="657.5" rx="2.6" ry="1.5" fill="#54432E" opacity="0.14"/><ellipse cx="251.9" cy="551.2" rx="3.7" ry="2.2" fill="#54432E" opacity="0.14"/><ellipse cx="591.3" cy="546.1" rx="3.7" ry="2.2" fill="#7A6449" opacity="0.14"/><ellipse cx="261.0" cy="556.1" rx="3.6" ry="2.2" fill="#54432E" opacity="0.14"/><ellipse cx="430.8" cy="559.7" rx="1.2" ry="0.7" fill="#54432E" opacity="0.14"/><ellipse cx="671.4" cy="670.3" rx="3.7" ry="2.2" fill="#7A6449" opacity="0.14"/><ellipse cx="95.1" cy="611.9" rx="2.7" ry="1.6" fill="#7A6449" opacity="0.14"/><ellipse cx="532.3" cy="619.7" rx="3.5" ry="2.1" fill="#54432E" opacity="0.14"/><ellipse cx="503.8" cy="637.1" rx="2.4" ry="1.5" fill="#7A6449" opacity="0.14"/><ellipse cx="400.8" cy="669.3" rx="3.7" ry="2.2" fill="#54432E" opacity="0.14"/><ellipse cx="832.3" cy="524.6" rx="2.7" ry="1.6" fill="#54432E" opacity="0.14"/><ellipse cx="535.6" cy="687.5" rx="3.5" ry="2.1" fill="#7A6449" opacity="0.14"/><ellipse cx="894.9" cy="614.8" rx="1.6" ry="1.0" fill="#54432E" opacity="0.14"/><ellipse cx="535.8" cy="521.0" rx="3.8" ry="2.3" fill="#7A6449" opacity="0.14"/><ellipse cx="733.4" cy="538.9" rx="3.1" ry="1.9" fill="#54432E" opacity="0.14"/><ellipse cx="98.9" cy="640.0" rx="3.4" ry="2.0" fill="#54432E" opacity="0.14"/><ellipse cx="314.2" cy="691.8" rx="1.8" ry="1.1" fill="#7A6449" opacity="0.14"/><ellipse cx="90.1" cy="669.3" rx="1.8" ry="1.1" fill="#7A6449" opacity="0.14"/><ellipse cx="253.8" cy="605.3" rx="2.0" ry="1.2" fill="#7A6449" opacity="0.14"/><ellipse cx="94.5" cy="535.4" rx="2.3" ry="1.4" fill="#54432E" opacity="0.14"/><ellipse cx="590.7" cy="676.2" rx="3.3" ry="2.0" fill="#54432E" opacity="0.14"/><ellipse cx="388.7" cy="680.8" rx="1.8" ry="1.1" fill="#54432E" opacity="0.14"/><ellipse cx="224.4" cy="676.8" rx="1.8" ry="1.1" fill="#7A6449" opacity="0.14"/><ellipse cx="57.3" cy="613.6" rx="2.5" ry="1.5" fill="#54432E" opacity="0.14"/><ellipse cx="539.2" cy="642.1" rx="2.0" ry="1.2" fill="#7A6449" opacity="0.14"/><ellipse cx="37.5" cy="595.0" rx="2.2" ry="1.3" fill="#7A6449" opacity="0.14"/><ellipse cx="622.4" cy="525.1" rx="3.2" ry="1.9" fill="#54432E" opacity="0.14"/><ellipse cx="822.4" cy="686.9" rx="3.4" ry="2.0" fill="#7A6449" opacity="0.14"/><ellipse cx="66.5" cy="582.3" rx="3.2" ry="1.9" fill="#54432E" opacity="0.14"/><line x1="0" y1="504" x2="900" y2="504" stroke="#DDD9D1" stroke-width="2"/><rect x="0" y="498" width="900" height="6" fill="#B98242" opacity="0.35"/>
<g>
  <rect x="142.00000000000003" y="374" width="220" height="130" fill="#ffffff" stroke="#DDD9D1" stroke-width="2"/>
  <polygon points="128.00000000000003,374 376,374 252.00000000000003,319" fill="#174C48"/>
  <rect x="168.40000000000003" y="410.4" width="48.4" height="39" fill="#174C48" opacity="0.15"/>
  <rect x="287.20000000000005" y="410.4" width="48.4" height="39" fill="#174C48" opacity="0.15"/>
  <rect x="234.40000000000003" y="432.5" width="35.2" height="71.5" fill="#103936" opacity="0.4"/>
</g>
<g>
  <rect x="253.8" y="510" width="680.4" height="6" rx="3" fill="#B98242" opacity="0.6"/>
  <rect x="407" y="392" width="33.8" height="112" fill="#174C48" opacity="0.92"/><rect x="444.8" y="392" width="33.8" height="112" fill="#103936" opacity="0.8"/><rect x="482.6" y="392" width="33.8" height="112" fill="#174C48" opacity="0.92"/><rect x="520.4" y="392" width="33.8" height="112" fill="#103936" opacity="0.8"/><rect x="558.2" y="392" width="33.8" height="112" fill="#174C48" opacity="0.92"/><rect x="596" y="392" width="33.8" height="112" fill="#103936" opacity="0.8"/><rect x="633.8" y="392" width="33.8" height="112" fill="#174C48" opacity="0.92"/><rect x="671.5999999999999" y="392" width="33.8" height="112" fill="#103936" opacity="0.8"/><rect x="709.4" y="392" width="33.8" height="112" fill="#174C48" opacity="0.92"/><rect x="747.2" y="392" width="33.8" height="112" fill="#103936" opacity="0.8"/>
  <rect x="399" y="384" width="390" height="10" fill="#103936"/>
  <circle cx="415" cy="510" r="7" fill="#103936"/>
  <circle cx="773" cy="510" r="7" fill="#103936"/>
</g>

<g opacity="0.85"><rect x="844.4" y="662" width="45.6" height="22" rx="11" fill="#ffffff" opacity="0.6"/><text x="882" y="677" text-anchor="end" font-family="Arial, sans-serif" font-size="12" fill="#B98242" font-weight="600">фото</text></g></svg>